# xmcd
#
# Track frame offsets: 
#        182
#        14055
#        24360
#        36820
#        49377
#        61457
#        72415
#        83022
#        94927
#        104925
#        115512
#        126665
#        139132
#        151140
#        162745
#        175895
#        188475
#        198772
#
# Disc length: 2786 seconds
#
# Revision: 3
# Processed by: cddbd v1.5.2PL0 Copyright (c) Steve Scherf et al.
# Submitted via: ExactAudioCopyFreeDBPlugin 1.0
#
DISCID=020ae012
DTITLE=Jimmy Reed - You Don't Have to Go
DYEAR=1992
DGENRE=Blues
TTITLE0=You Don't Have to Go
TTITLE1=I Ain't Got You
TTITLE2=Can't Stand to See You Go
TTITLE3=You Got Me Dizzy
TTITLE4=Honest I Do
TTITLE5=Down In Virginia
TTITLE6=Too Much
TTITLE7=I'm Gonna Get My Baby
TTITLE8=I Wanna Be Loved
TTITLE9=Baby, What You Want Me to Do ?
TTITLE10=Hush Hush
TTITLE11=Big Boss Man
TTITLE12=Bright Lights, Big City
TTITLE13=Down the Road
TTITLE14=I'm Going Upside Your Head
TTITLE15=Shame, Shame, Shame
TTITLE16=Take Out Some Insurance
TTITLE17=Found Love
EXTD=YEAR: 1992
EXTT0=
EXTT1=
EXTT2=
EXTT3=
EXTT4=
EXTT5=
EXTT6=
EXTT7=
EXTT8=
EXTT9=
EXTT10=
EXTT11=
EXTT12=
EXTT13=
EXTT14=
EXTT15=
EXTT16=
EXTT17=
PLAYORDER=
